<svg width="403" height="62" viewBox="0 0 403 62" fill="none" xmlns="http://www.w3.org/2000/svg">
<rect opacity="0.76" x="0.5" y="0.5" width="402" height="61" rx="30.5" stroke="#E4EAED"/>
<path d="M88.877 34.3379C88.877 33.7129 88.6556 33.2311 88.2129 32.8926C87.7767 32.554 86.9857 32.2122 85.8398 31.8672C84.694 31.5221 83.7826 31.138 83.1055 30.7148C81.8099 29.901 81.1621 28.8398 81.1621 27.5312C81.1621 26.3854 81.6276 25.4414 82.5586 24.6992C83.4961 23.957 84.7103 23.5859 86.2012 23.5859C87.1908 23.5859 88.0729 23.7682 88.8477 24.1328C89.6224 24.4974 90.2311 25.0182 90.6738 25.6953C91.1165 26.3659 91.3379 27.1113 91.3379 27.9316H88.877C88.877 27.1895 88.6426 26.61 88.1738 26.1934C87.7116 25.7702 87.0475 25.5586 86.1816 25.5586C85.3743 25.5586 84.7461 25.7311 84.2969 26.0762C83.8542 26.4212 83.6328 26.903 83.6328 27.5215C83.6328 28.0423 83.8737 28.4785 84.3555 28.8301C84.8372 29.1751 85.6315 29.5137 86.7383 29.8457C87.8451 30.1712 88.7337 30.5456 89.4043 30.9688C90.0749 31.3854 90.5664 31.8672 90.8789 32.4141C91.1914 32.9544 91.3477 33.5892 91.3477 34.3184C91.3477 35.5033 90.8919 36.4473 89.9805 37.1504C89.0755 37.847 87.8451 38.1953 86.2891 38.1953C85.2604 38.1953 84.3132 38.0065 83.4473 37.6289C82.5879 37.2448 81.9173 36.7174 81.4355 36.0469C80.9603 35.3763 80.7227 34.5951 80.7227 33.7031H83.1934C83.1934 34.5104 83.4603 35.1354 83.9941 35.5781C84.528 36.0208 85.293 36.2422 86.2891 36.2422C87.1484 36.2422 87.793 36.0697 88.2227 35.7246C88.6589 35.373 88.877 34.9108 88.877 34.3379ZM95.8105 38H93.4375V27.4336H95.8105V38ZM93.291 24.6895C93.291 24.3249 93.4049 24.0221 93.6328 23.7812C93.8672 23.5404 94.1992 23.4199 94.6289 23.4199C95.0586 23.4199 95.3906 23.5404 95.625 23.7812C95.8594 24.0221 95.9766 24.3249 95.9766 24.6895C95.9766 25.0475 95.8594 25.347 95.625 25.5879C95.3906 25.8223 95.0586 25.9395 94.6289 25.9395C94.1992 25.9395 93.8672 25.8223 93.6328 25.5879C93.4049 25.347 93.291 25.0475 93.291 24.6895ZM97.9883 32.6387C97.9883 30.998 98.3724 29.6895 99.1406 28.7129C99.9154 27.7298 100.941 27.2383 102.217 27.2383C103.421 27.2383 104.368 27.6582 105.059 28.498L105.166 27.4336H107.305V37.6777C107.305 39.0645 106.872 40.1582 106.006 40.959C105.146 41.7598 103.984 42.1602 102.52 42.1602C101.745 42.1602 100.986 41.9974 100.244 41.6719C99.5085 41.3529 98.9486 40.9329 98.5645 40.4121L99.6875 38.9863C100.417 39.8522 101.315 40.2852 102.383 40.2852C103.171 40.2852 103.792 40.0703 104.248 39.6406C104.704 39.2174 104.932 38.5924 104.932 37.7656V37.0527C104.248 37.8145 103.337 38.1953 102.197 38.1953C100.96 38.1953 99.9479 37.7038 99.1602 36.7207C98.3789 35.7376 97.9883 34.377 97.9883 32.6387ZM100.352 32.8438C100.352 33.9049 100.566 34.7415 100.996 35.3535C101.432 35.959 102.035 36.2617 102.803 36.2617C103.76 36.2617 104.469 35.8516 104.932 35.0312V30.3828C104.482 29.582 103.779 29.1816 102.822 29.1816C102.041 29.1816 101.432 29.4909 100.996 30.1094C100.566 30.7279 100.352 31.6393 100.352 32.8438ZM111.953 27.4336L112.021 28.6543C112.803 27.7103 113.828 27.2383 115.098 27.2383C117.298 27.2383 118.418 28.498 118.457 31.0176V38H116.084V31.1543C116.084 30.4837 115.938 29.9889 115.645 29.6699C115.358 29.3444 114.886 29.1816 114.229 29.1816C113.271 29.1816 112.559 29.6146 112.09 30.4805V38H109.717V27.4336H111.953ZM132.266 36.9648C131.569 37.7852 130.579 38.1953 129.297 38.1953C128.151 38.1953 127.282 37.86 126.689 37.1895C126.104 36.5189 125.811 35.5488 125.811 34.2793V27.4336H128.184V34.25C128.184 35.5911 128.74 36.2617 129.854 36.2617C131.006 36.2617 131.784 35.8483 132.188 35.0215V27.4336H134.561V38H132.324L132.266 36.9648ZM146.23 32.8242C146.23 34.4583 145.859 35.7637 145.117 36.7402C144.375 37.7103 143.379 38.1953 142.129 38.1953C140.97 38.1953 140.042 37.8145 139.346 37.0527V42.0625H136.973V27.4336H139.16L139.258 28.5078C139.954 27.6615 140.902 27.2383 142.1 27.2383C143.389 27.2383 144.398 27.7201 145.127 28.6836C145.863 29.6406 146.23 30.972 146.23 32.6777V32.8242ZM143.867 32.6191C143.867 31.5645 143.656 30.7279 143.232 30.1094C142.816 29.4909 142.217 29.1816 141.436 29.1816C140.465 29.1816 139.769 29.582 139.346 30.3828V35.0703C139.775 35.8906 140.479 36.3008 141.455 36.3008C142.21 36.3008 142.799 35.998 143.223 35.3926C143.652 34.7806 143.867 33.8561 143.867 32.6191ZM162.51 34.7285L164.189 27.4336H166.504L163.623 38H161.67L159.404 30.7441L157.178 38H155.225L152.334 27.4336H154.648L156.357 34.6504L158.525 27.4336H160.312L162.51 34.7285ZM170.615 38H168.242V27.4336H170.615V38ZM168.096 24.6895C168.096 24.3249 168.21 24.0221 168.438 23.7812C168.672 23.5404 169.004 23.4199 169.434 23.4199C169.863 23.4199 170.195 23.5404 170.43 23.7812C170.664 24.0221 170.781 24.3249 170.781 24.6895C170.781 25.0475 170.664 25.347 170.43 25.5879C170.195 25.8223 169.863 25.9395 169.434 25.9395C169.004 25.9395 168.672 25.8223 168.438 25.5879C168.21 25.347 168.096 25.0475 168.096 24.6895ZM176.182 24.8652V27.4336H178.047V29.1914H176.182V35.0898C176.182 35.4935 176.26 35.7865 176.416 35.9688C176.579 36.1445 176.865 36.2324 177.275 36.2324C177.549 36.2324 177.826 36.1999 178.105 36.1348V37.9707C177.565 38.1204 177.044 38.1953 176.543 38.1953C174.72 38.1953 173.809 37.1895 173.809 35.1777V29.1914H172.07V27.4336H173.809V24.8652H176.182ZM182.207 28.5859C182.982 27.6875 183.962 27.2383 185.146 27.2383C187.399 27.2383 188.542 28.5241 188.574 31.0957V38H186.201V31.1836C186.201 30.4544 186.042 29.9401 185.723 29.6406C185.41 29.3346 184.948 29.1816 184.336 29.1816C183.385 29.1816 182.676 29.6048 182.207 30.4512V38H179.834V23H182.207V28.5859ZM205.215 32.8242C205.215 34.4583 204.844 35.7637 204.102 36.7402C203.359 37.7103 202.363 38.1953 201.113 38.1953C199.954 38.1953 199.027 37.8145 198.33 37.0527V42.0625H195.957V27.4336H198.145L198.242 28.5078C198.939 27.6615 199.886 27.2383 201.084 27.2383C202.373 27.2383 203.382 27.7201 204.111 28.6836C204.847 29.6406 205.215 30.972 205.215 32.6777V32.8242ZM202.852 32.6191C202.852 31.5645 202.64 30.7279 202.217 30.1094C201.8 29.4909 201.201 29.1816 200.42 29.1816C199.45 29.1816 198.753 29.582 198.33 30.3828V35.0703C198.76 35.8906 199.463 36.3008 200.439 36.3008C201.195 36.3008 201.784 35.998 202.207 35.3926C202.637 34.7806 202.852 33.8561 202.852 32.6191ZM209.57 28.5859C210.345 27.6875 211.325 27.2383 212.51 27.2383C214.762 27.2383 215.905 28.5241 215.938 31.0957V38H213.564V31.1836C213.564 30.4544 213.405 29.9401 213.086 29.6406C212.773 29.3346 212.311 29.1816 211.699 29.1816C210.749 29.1816 210.039 29.6048 209.57 30.4512V38H207.197V23H209.57V28.5859ZM217.9 32.6191C217.9 31.584 218.105 30.653 218.516 29.8262C218.926 28.9928 219.502 28.3548 220.244 27.9121C220.986 27.4629 221.839 27.2383 222.803 27.2383C224.229 27.2383 225.384 27.6973 226.27 28.6152C227.161 29.5332 227.643 30.7507 227.715 32.2676L227.725 32.8242C227.725 33.8659 227.523 34.7969 227.119 35.6172C226.722 36.4375 226.149 37.0723 225.4 37.5215C224.658 37.9707 223.799 38.1953 222.822 38.1953C221.331 38.1953 220.137 37.7005 219.238 36.7109C218.346 35.7148 217.9 34.39 217.9 32.7363V32.6191ZM220.273 32.8242C220.273 33.9115 220.498 34.7643 220.947 35.3828C221.396 35.9948 222.021 36.3008 222.822 36.3008C223.623 36.3008 224.245 35.9883 224.688 35.3633C225.137 34.7383 225.361 33.8236 225.361 32.6191C225.361 31.5514 225.13 30.7051 224.668 30.0801C224.212 29.4551 223.59 29.1426 222.803 29.1426C222.028 29.1426 221.413 29.4518 220.957 30.0703C220.501 30.6823 220.273 31.6003 220.273 32.8242ZM231.934 27.4336L232.002 28.6543C232.783 27.7103 233.809 27.2383 235.078 27.2383C237.279 27.2383 238.398 28.498 238.438 31.0176V38H236.064V31.1543C236.064 30.4837 235.918 29.9889 235.625 29.6699C235.339 29.3444 234.867 29.1816 234.209 29.1816C233.252 29.1816 232.539 29.6146 232.07 30.4805V38H229.697V27.4336H231.934ZM245.518 38.1953C244.014 38.1953 242.793 37.7233 241.855 36.7793C240.924 35.8288 240.459 34.5658 240.459 32.9902V32.6973C240.459 31.6426 240.661 30.7018 241.064 29.875C241.475 29.0417 242.048 28.3939 242.783 27.9316C243.519 27.4694 244.339 27.2383 245.244 27.2383C246.683 27.2383 247.793 27.6973 248.574 28.6152C249.362 29.5332 249.756 30.832 249.756 32.5117V33.4688H242.852C242.923 34.3411 243.213 35.0312 243.721 35.5391C244.235 36.0469 244.88 36.3008 245.654 36.3008C246.742 36.3008 247.627 35.8613 248.311 34.9824L249.59 36.2031C249.167 36.8346 248.6 37.3262 247.891 37.6777C247.188 38.0228 246.396 38.1953 245.518 38.1953ZM245.234 29.1426C244.583 29.1426 244.056 29.3704 243.652 29.8262C243.255 30.2819 243.001 30.9167 242.891 31.7305H247.412V31.5547C247.36 30.7604 247.148 30.1615 246.777 29.7578C246.406 29.3477 245.892 29.1426 245.234 29.1426ZM256.143 32.6191C256.143 31.584 256.348 30.653 256.758 29.8262C257.168 28.9928 257.744 28.3548 258.486 27.9121C259.229 27.4629 260.081 27.2383 261.045 27.2383C262.471 27.2383 263.626 27.6973 264.512 28.6152C265.404 29.5332 265.885 30.7507 265.957 32.2676L265.967 32.8242C265.967 33.8659 265.765 34.7969 265.361 35.6172C264.964 36.4375 264.391 37.0723 263.643 37.5215C262.9 37.9707 262.041 38.1953 261.064 38.1953C259.574 38.1953 258.379 37.7005 257.48 36.7109C256.589 35.7148 256.143 34.39 256.143 32.7363V32.6191ZM258.516 32.8242C258.516 33.9115 258.74 34.7643 259.189 35.3828C259.639 35.9948 260.264 36.3008 261.064 36.3008C261.865 36.3008 262.487 35.9883 262.93 35.3633C263.379 34.7383 263.604 33.8236 263.604 32.6191C263.604 31.5514 263.372 30.7051 262.91 30.0801C262.454 29.4551 261.833 29.1426 261.045 29.1426C260.27 29.1426 259.655 29.4518 259.199 30.0703C258.743 30.6823 258.516 31.6003 258.516 32.8242ZM273.506 29.6016C273.193 29.5495 272.871 29.5234 272.539 29.5234C271.452 29.5234 270.719 29.9401 270.342 30.7734V38H267.969V27.4336H270.234L270.293 28.6152C270.866 27.6973 271.66 27.2383 272.676 27.2383C273.014 27.2383 273.294 27.2839 273.516 27.375L273.506 29.6016ZM284.639 38.1953C283.135 38.1953 281.914 37.7233 280.977 36.7793C280.046 35.8288 279.58 34.5658 279.58 32.9902V32.6973C279.58 31.6426 279.782 30.7018 280.186 29.875C280.596 29.0417 281.169 28.3939 281.904 27.9316C282.64 27.4694 283.46 27.2383 284.365 27.2383C285.804 27.2383 286.914 27.6973 287.695 28.6152C288.483 29.5332 288.877 30.832 288.877 32.5117V33.4688H281.973C282.044 34.3411 282.334 35.0312 282.842 35.5391C283.356 36.0469 284.001 36.3008 284.775 36.3008C285.863 36.3008 286.748 35.8613 287.432 34.9824L288.711 36.2031C288.288 36.8346 287.721 37.3262 287.012 37.6777C286.309 38.0228 285.518 38.1953 284.639 38.1953ZM284.355 29.1426C283.704 29.1426 283.177 29.3704 282.773 29.8262C282.376 30.2819 282.122 30.9167 282.012 31.7305H286.533V31.5547C286.481 30.7604 286.27 30.1615 285.898 29.7578C285.527 29.3477 285.013 29.1426 284.355 29.1426ZM292.959 27.4336L293.027 28.5371C293.77 27.6712 294.785 27.2383 296.074 27.2383C297.487 27.2383 298.454 27.7786 298.975 28.8594C299.743 27.7786 300.824 27.2383 302.217 27.2383C303.382 27.2383 304.248 27.5605 304.814 28.2051C305.387 28.8496 305.68 29.8001 305.693 31.0566V38H303.32V31.125C303.32 30.4544 303.174 29.9629 302.881 29.6504C302.588 29.3379 302.103 29.1816 301.426 29.1816C300.885 29.1816 300.443 29.3281 300.098 29.6211C299.759 29.9076 299.521 30.2852 299.385 30.7539L299.395 38H297.021V31.0469C296.989 29.8034 296.354 29.1816 295.117 29.1816C294.167 29.1816 293.493 29.569 293.096 30.3438V38H290.723V27.4336H292.959ZM314.443 38C314.339 37.7982 314.248 37.4694 314.17 37.0137C313.415 37.8014 312.49 38.1953 311.396 38.1953C310.335 38.1953 309.469 37.8926 308.799 37.2871C308.128 36.6816 307.793 35.9329 307.793 35.041C307.793 33.9147 308.21 33.0521 309.043 32.4531C309.883 31.8477 311.081 31.5449 312.637 31.5449H314.092V30.8516C314.092 30.3047 313.939 29.8685 313.633 29.543C313.327 29.2109 312.861 29.0449 312.236 29.0449C311.696 29.0449 311.253 29.1816 310.908 29.4551C310.563 29.722 310.391 30.0638 310.391 30.4805H308.018C308.018 29.901 308.21 29.3607 308.594 28.8594C308.978 28.3516 309.499 27.9544 310.156 27.668C310.82 27.3815 311.559 27.2383 312.373 27.2383C313.61 27.2383 314.596 27.5508 315.332 28.1758C316.068 28.7943 316.445 29.6667 316.465 30.793V35.5586C316.465 36.5091 316.598 37.2676 316.865 37.834V38H314.443ZM311.836 36.291C312.305 36.291 312.744 36.1771 313.154 35.9492C313.571 35.7214 313.883 35.4154 314.092 35.0312V33.0391H312.812C311.934 33.0391 311.273 33.1921 310.83 33.498C310.387 33.804 310.166 34.237 310.166 34.7969C310.166 35.2526 310.316 35.6172 310.615 35.8906C310.921 36.1576 311.328 36.291 311.836 36.291ZM321.475 38H319.102V27.4336H321.475V38ZM318.955 24.6895C318.955 24.3249 319.069 24.0221 319.297 23.7812C319.531 23.5404 319.863 23.4199 320.293 23.4199C320.723 23.4199 321.055 23.5404 321.289 23.7812C321.523 24.0221 321.641 24.3249 321.641 24.6895C321.641 25.0475 321.523 25.347 321.289 25.5879C321.055 25.8223 320.723 25.9395 320.293 25.9395C319.863 25.9395 319.531 25.8223 319.297 25.5879C319.069 25.347 318.955 25.0475 318.955 24.6895ZM326.592 38H324.219V23H326.592V38Z" fill="black"/>
</svg>
